<!-- License: CC Attribution. Made by remartwork: https://dribbble.com/remartwork -->
<svg width="24px" height="24px" viewBox="0 0 24 24" fill="none" xmlns="http://www.w3.org/2000/svg">
<path fill-rule="evenodd" clip-rule="evenodd" d="M8.12903 16.1026C8.12903 16.5274 8.47565 16.8718 8.90323 16.8718H15.0968C15.5243 16.8718 15.871 16.5274 15.871 16.1026C15.871 15.6777 15.5243 15.3333 15.0968 15.3333H8.90323C8.47565 15.3333 8.12903 15.6777 8.12903 16.1026Z" fill="#030D45"/>
<path fill-rule="evenodd" clip-rule="evenodd" d="M8.12903 12C8.12903 12.4248 8.47565 12.7692 8.90323 12.7692H12C12.4276 12.7692 12.7742 12.4248 12.7742 12C12.7742 11.5752 12.4276 11.2308 12 11.2308H8.90323C8.47565 11.2308 8.12903 11.5752 8.12903 12Z" fill="#030D45"/>
<path fill-rule="evenodd" clip-rule="evenodd" d="M8.96832 2.86688C9.28943 2.34443 9.85266 2 10.4879 2H13.5121C14.1473 2 14.7106 2.34443 15.0317 2.86688L15.598 3.78825C16.1575 3.83176 16.6881 3.87857 17.1512 3.92214C18.4998 4.04902 19.5504 5.11757 19.6563 6.45519C19.7985 8.25286 20 11.1773 20 13.3444C20 15.3896 19.8208 17.7117 19.6808 19.216C19.5583 20.5333 18.5145 21.5672 17.1922 21.6922C15.7554 21.8279 13.6198 22 12 22C10.3802 22 8.24457 21.8279 6.80778 21.6922C5.48548 21.5672 4.44171 20.5333 4.31916 19.216C4.1792 17.7117 4 15.3896 4 13.3444C4 11.1773 4.20149 8.25286 4.34373 6.45519C4.44956 5.11757 5.50024 4.04902 6.84879 3.92214C7.31193 3.87857 7.8425 3.83176 8.402 3.78825L8.96832 2.86688ZM8.02441 5.36223C7.65829 5.3928 7.31087 5.42401 6.99475 5.45375C6.39941 5.50977 5.93455 5.97928 5.88735 6.57577C5.74518 8.37253 5.54839 11.2436 5.54839 13.3444C5.54839 15.3175 5.72226 17.5834 5.86097 19.0744C5.91474 19.6523 6.3697 20.1054 6.95435 20.1606C8.38773 20.296 10.4598 20.4615 12 20.4615C13.5402 20.4615 15.6123 20.296 17.0456 20.1606C17.6303 20.1054 18.0853 19.6523 18.139 19.0744C18.2777 17.5834 18.4516 15.3175 18.4516 13.3444C18.4516 11.2436 18.2548 8.37253 18.1126 6.57577C18.0655 5.97928 17.6006 5.50977 17.0052 5.45376C16.6891 5.42401 16.3417 5.3928 15.9756 5.36223C15.9352 5.5803 15.8588 5.7884 15.7521 5.97609C15.4604 6.48894 14.9092 6.89732 14.2002 6.89732H9.79976C9.09084 6.89732 8.53958 6.48894 8.24791 5.97609C8.14117 5.7884 8.06476 5.5803 8.02441 5.36223ZM10.4879 3.53846C10.4329 3.53846 10.3515 3.56821 10.2898 3.66872L9.60159 4.78834C9.59146 4.80483 9.58285 4.82123 9.57557 4.83747C9.52007 4.96132 9.53158 5.10602 9.59596 5.21923C9.6574 5.32725 9.73397 5.35886 9.79976 5.35886H14.2002C14.266 5.35886 14.3426 5.32725 14.404 5.21923C14.4684 5.10602 14.4799 4.96132 14.4244 4.83747C14.4171 4.82123 14.4085 4.80483 14.3984 4.78834L13.7102 3.66872C13.6485 3.56821 13.5671 3.53846 13.5121 3.53846H10.4879Z" fill="#030D45"/>
</svg>
